<?xml version="1.0" encoding="UTF-8"?>
<!DOCTYPE svg PUBLIC "-//W3C//DTD SVG 1.1//EN" "http://www.w3.org/Graphics/SVG/1.1/DTD/svg11.dtd">
<svg xmlns="http://www.w3.org/2000/svg" xmlns:xlink="http://www.w3.org/1999/xlink" version="1.1" width="604" height="506" viewBox="-0.5 -0.5 604 506"><defs><filter id="dropShadow"><feGaussianBlur in="SourceAlpha" stdDeviation="1.7" result="blur"/><feOffset in="blur" dx="3" dy="3" result="offsetBlur"/><feFlood flood-color="#3D4574" flood-opacity="0.4" result="offsetColor"/><feComposite in="offsetColor" in2="offsetBlur" operator="in" result="offsetBlur"/><feBlend in="SourceGraphic" in2="offsetBlur"/></filter></defs><g filter="url(#dropShadow)"><path d="M 257.03 80 L 257.03 90.03 Q 257.03 100.03 257.03 95.03 L 257.03 92.53 Q 257.03 90.03 257.03 96.83 L 257.03 103.63" fill="none" stroke="#000000" stroke-miterlimit="10" pointer-events="stroke" transform="translate(2,3)" opacity="0.25"/><path d="M 257.03 80 L 257.03 90.03 Q 257.03 100.03 257.03 95.03 L 257.03 92.53 Q 257.03 90.03 257.03 96.83 L 257.03 103.63" fill="none" stroke="rgb(0, 0, 0)" stroke-miterlimit="10" pointer-events="stroke"/><path d="M 257.03 108.88 L 253.53 101.88 L 257.03 103.63 L 260.53 101.88 Z" fill="rgb(0, 0, 0)" stroke="rgb(0, 0, 0)" stroke-miterlimit="10" pointer-events="all"/><path d="M 243.43 40 L 270.57 40 C 282.41 40 292 48.95 292 60 C 292 71.05 282.41 80 270.57 80 L 243.43 80 C 231.59 80 222 71.05 222 60 C 222 48.95 231.59 40 243.43 40 Z" fill="#000000" stroke="#000000" stroke-width="2" stroke-miterlimit="10" pointer-events="all" transform="translate(2,3)" opacity="0.25"/><path d="M 243.43 40 L 270.57 40 C 282.41 40 292 48.95 292 60 C 292 71.05 282.41 80 270.57 80 L 243.43 80 C 231.59 80 222 71.05 222 60 C 222 48.95 231.59 40 243.43 40 Z" fill="rgb(255, 255, 255)" stroke="rgb(0, 0, 0)" stroke-width="2" stroke-miterlimit="10" pointer-events="all"/><g fill="rgb(0, 0, 0)" font-family="Helvetica" text-anchor="middle" font-size="12px"><text x="256.5" y="64.5">开始</text></g><path d="M 257.03 150 L 257.03 160.03 Q 257.03 170.03 257.03 160.03 L 257.03 155.03 Q 257.03 150.03 257.02 156.83 L 257.01 163.63" fill="none" stroke="#000000" stroke-miterlimit="10" pointer-events="stroke" transform="translate(2,3)" opacity="0.25"/><path d="M 257.03 150 L 257.03 160.03 Q 257.03 170.03 257.03 160.03 L 257.03 155.03 Q 257.03 150.03 257.02 156.83 L 257.01 163.63" fill="none" stroke="rgb(0, 0, 0)" stroke-miterlimit="10" pointer-events="stroke"/><path d="M 257 168.88 L 253.51 161.88 L 257.01 163.63 L 260.51 161.89 Z" fill="rgb(0, 0, 0)" stroke="rgb(0, 0, 0)" stroke-miterlimit="10" pointer-events="all"/><rect x="207" y="110" width="100" height="40" rx="6" ry="6" fill="#000000" stroke="#000000" pointer-events="all" transform="translate(2,3)" opacity="0.25"/><rect x="207" y="110" width="100" height="40" rx="6" ry="6" fill="rgb(255, 255, 255)" stroke="rgb(0, 0, 0)" pointer-events="all"/><g fill="rgb(0, 0, 0)" font-family="Helvetica" text-anchor="middle" font-size="12px"><text x="256.5" y="134.5">初始化设备</text></g><path d="M 257 390 L 257 423.63" fill="none" stroke="rgb(0, 0, 0)" stroke-miterlimit="10" pointer-events="stroke"/><path d="M 257 428.88 L 253.5 421.88 L 257 423.63 L 260.5 421.88 Z" fill="rgb(0, 0, 0)" stroke="rgb(0, 0, 0)" stroke-miterlimit="10" pointer-events="all"/><rect x="197" y="350" width="120" height="40" rx="6" ry="6" fill="#000000" stroke="#000000" pointer-events="all" transform="translate(2,3)" opacity="0.25"/><rect x="197" y="350" width="120" height="40" rx="6" ry="6" fill="rgb(255, 255, 255)" stroke="rgb(0, 0, 0)" pointer-events="all"/><g fill="rgb(0, 0, 0)" font-family="Helvetica" text-anchor="middle" font-size="12px"><text x="256.5" y="374.5">检测蚊虫数量及位置</text></g><path d="M 257 210 L 257 243.63" fill="none" stroke="#000000" stroke-miterlimit="10" pointer-events="stroke" transform="translate(2,3)" opacity="0.25"/><path d="M 257 210 L 257 243.63" fill="none" stroke="rgb(0, 0, 0)" stroke-miterlimit="10" pointer-events="stroke"/><path d="M 257 248.88 L 253.5 241.88 L 257 243.63 L 260.5 241.88 Z" fill="rgb(0, 0, 0)" stroke="rgb(0, 0, 0)" stroke-miterlimit="10" pointer-events="all"/><rect x="207" y="170" width="100" height="40" rx="6" ry="6" fill="#000000" stroke="#000000" pointer-events="all" transform="translate(2,3)" opacity="0.25"/><rect x="207" y="170" width="100" height="40" rx="6" ry="6" fill="rgb(255, 255, 255)" stroke="rgb(0, 0, 0)" pointer-events="all"/><g fill="rgb(0, 0, 0)" font-family="Helvetica" text-anchor="middle" font-size="12px"><text x="256.5" y="194.5">打开摄像头</text></g><path d="M 197 280 L 172 280.02 Q 162 280.03 162 270.03 L 162 155 Q 162 145 152 145 L 92 145 Q 82 145 82 151.82 L 82 158.63" fill="none" stroke="#000000" stroke-miterlimit="10" pointer-events="stroke" transform="translate(2,3)" opacity="0.25"/><path d="M 197 280 L 172 280.02 Q 162 280.03 162 270.03 L 162 155 Q 162 145 152 145 L 92 145 Q 82 145 82 151.82 L 82 158.63" fill="none" stroke="rgb(0, 0, 0)" stroke-miterlimit="10" pointer-events="stroke"/><path d="M 82 163.88 L 78.5 156.88 L 82 158.63 L 85.5 156.88 Z" fill="rgb(0, 0, 0)" stroke="rgb(0, 0, 0)" stroke-miterlimit="10" pointer-events="all"/><path d="M 257 310 L 257 343.63" fill="none" stroke="#000000" stroke-miterlimit="10" pointer-events="stroke" transform="translate(2,3)" opacity="0.25"/><path d="M 257 310 L 257 343.63" fill="none" stroke="rgb(0, 0, 0)" stroke-miterlimit="10" pointer-events="stroke"/><path d="M 257 348.88 L 253.5 341.88 L 257 343.63 L 260.5 341.88 Z" fill="rgb(0, 0, 0)" stroke="rgb(0, 0, 0)" stroke-miterlimit="10" pointer-events="all"/><path d="M 257 250 L 317 280 L 257 310 L 197 280 Z" fill="#000000" stroke="#000000" stroke-miterlimit="10" pointer-events="all" transform="translate(2,3)" opacity="0.25"/><path d="M 257 250 L 317 280 L 257 310 L 197 280 Z" fill="rgb(255, 255, 255)" stroke="rgb(0, 0, 0)" stroke-miterlimit="10" pointer-events="all"/><g fill="rgb(0, 0, 0)" font-family="Helvetica" text-anchor="middle" font-size="12px"><text x="256.5" y="282.5">系统运行中？</text></g><path d="M 467.03 140 L 467.03 150.03 Q 467.03 160.03 467.03 152.52 L 467.03 148.76 Q 467.03 145 467.02 151.82 L 467.01 158.63" fill="none" stroke="#000000" stroke-miterlimit="10" pointer-events="stroke" transform="translate(2,3)" opacity="0.25"/><path d="M 467.03 140 L 467.03 150.03 Q 467.03 160.03 467.03 152.52 L 467.03 148.76 Q 467.03 145 467.02 151.82 L 467.01 158.63" fill="none" stroke="rgb(0, 0, 0)" stroke-miterlimit="10" pointer-events="stroke"/><path d="M 467 163.88 L 463.51 156.88 L 467.01 158.63 L 470.51 156.89 Z" fill="rgb(0, 0, 0)" stroke="rgb(0, 0, 0)" stroke-miterlimit="10" pointer-events="all"/><rect x="407" y="100" width="120" height="40" rx="6" ry="6" fill="#000000" stroke="#000000" pointer-events="all" transform="translate(2,3)" opacity="0.25"/><rect x="407" y="100" width="120" height="40" rx="6" ry="6" fill="rgb(255, 255, 255)" stroke="rgb(0, 0, 0)" pointer-events="all"/><g fill="rgb(0, 0, 0)" font-family="Helvetica" text-anchor="middle" font-size="12px"><text x="466.5" y="117.5">将蚊虫的位置坐</text><text x="466.5" y="131.5">标发送给下位机</text></g><path d="M 467.03 205 L 467.03 215 Q 467.03 225 467.03 217.52 L 467.03 213.78 Q 467.03 210.03 467.02 216.83 L 467.01 223.63" fill="none" stroke="#000000" stroke-miterlimit="10" pointer-events="stroke" transform="translate(2,3)" opacity="0.25"/><path d="M 467.03 205 L 467.03 215 Q 467.03 225 467.03 217.52 L 467.03 213.78 Q 467.03 210.03 467.02 216.83 L 467.01 223.63" fill="none" stroke="rgb(0, 0, 0)" stroke-miterlimit="10" pointer-events="stroke"/><path d="M 467 228.88 L 463.51 221.88 L 467.01 223.63 L 470.51 221.89 Z" fill="rgb(0, 0, 0)" stroke="rgb(0, 0, 0)" stroke-miterlimit="10" pointer-events="all"/><rect x="397" y="165" width="140" height="40" rx="6" ry="6" fill="#000000" stroke="#000000" pointer-events="all" transform="translate(2,3)" opacity="0.25"/><rect x="397" y="165" width="140" height="40" rx="6" ry="6" fill="rgb(255, 255, 255)" stroke="rgb(0, 0, 0)" pointer-events="all"/><g fill="rgb(0, 0, 0)" font-family="Helvetica" text-anchor="middle" font-size="12px"><text x="466.5" y="182.5">移动平台的 x、y 轴移</text><text x="466.5" y="196.5">动到相应的位置</text></g><path d="M 467.03 270 L 467.03 280.03 Q 467.03 290.03 467.03 285.03 L 467.03 282.53 Q 467.03 280.03 467.02 286.83 L 467.01 293.63" fill="none" stroke="#000000" stroke-miterlimit="10" pointer-events="stroke" transform="translate(2,3)" opacity="0.25"/><path d="M 467.03 270 L 467.03 280.03 Q 467.03 290.03 467.03 285.03 L 467.03 282.53 Q 467.03 280.03 467.02 286.83 L 467.01 293.63" fill="none" stroke="rgb(0, 0, 0)" stroke-miterlimit="10" pointer-events="stroke"/><path d="M 467 298.88 L 463.51 291.88 L 467.01 293.63 L 470.51 291.89 Z" fill="rgb(0, 0, 0)" stroke="rgb(0, 0, 0)" stroke-miterlimit="10" pointer-events="all"/><rect x="422" y="230" width="90" height="40" rx="6" ry="6" fill="#000000" stroke="#000000" pointer-events="all" transform="translate(2,3)" opacity="0.25"/><rect x="422" y="230" width="90" height="40" rx="6" ry="6" fill="rgb(255, 255, 255)" stroke="rgb(0, 0, 0)" pointer-events="all"/><g fill="rgb(0, 0, 0)" font-family="Helvetica" text-anchor="middle" font-size="12px"><text x="466.5" y="254.5">拍照</text></g><path d="M 526.93 330.03 L 577.03 330.03 Q 587.03 330.03 587.03 320.03 L 587.03 80.03 Q 587.03 70.03 577.03 70.03 L 473.37 70" fill="none" stroke="#000000" stroke-miterlimit="10" pointer-events="stroke" transform="translate(2,3)" opacity="0.25"/><path d="M 526.93 330.03 L 577.03 330.03 Q 587.03 330.03 587.03 320.03 L 587.03 80.03 Q 587.03 70.03 577.03 70.03 L 473.37 70" fill="none" stroke="rgb(0, 0, 0)" stroke-miterlimit="10" pointer-events="stroke"/><path d="M 468.12 70 L 475.12 66.5 L 473.37 70 L 475.12 73.5 Z" fill="rgb(0, 0, 0)" stroke="rgb(0, 0, 0)" stroke-miterlimit="10" pointer-events="all"/><path d="M 467.03 359.98 L 467.03 370.03 Q 467.03 380.03 467.03 375.03 L 467.03 372.53 Q 467.03 370.03 467.03 376.83 L 467.03 383.63" fill="none" stroke="#000000" stroke-miterlimit="10" pointer-events="stroke" transform="translate(2,3)" opacity="0.25"/><path d="M 467.03 359.98 L 467.03 370.03 Q 467.03 380.03 467.03 375.03 L 467.03 372.53 Q 467.03 370.03 467.03 376.83 L 467.03 383.63" fill="none" stroke="rgb(0, 0, 0)" stroke-miterlimit="10" pointer-events="stroke"/><path d="M 467.03 388.88 L 463.53 381.88 L 467.03 383.63 L 470.53 381.88 Z" fill="rgb(0, 0, 0)" stroke="rgb(0, 0, 0)" stroke-miterlimit="10" pointer-events="all"/><path d="M 467 300 L 527 330 L 467 360 L 407 330 Z" fill="#000000" stroke="#000000" stroke-miterlimit="10" pointer-events="all" transform="translate(2,3)" opacity="0.25"/><path d="M 467 300 L 527 330 L 467 360 L 407 330 Z" fill="rgb(255, 255, 255)" stroke="rgb(0, 0, 0)" stroke-miterlimit="10" pointer-events="all"/><g fill="rgb(0, 0, 0)" font-family="Helvetica" text-anchor="middle" font-size="12px"><text x="466.5" y="332.5">坐标发送完毕？</text></g><path d="M 82 280 L 82 313.63" fill="none" stroke="#000000" stroke-miterlimit="10" pointer-events="stroke" transform="translate(2,3)" opacity="0.25"/><path d="M 82 280 L 82 313.63" fill="none" stroke="rgb(0, 0, 0)" stroke-miterlimit="10" pointer-events="stroke"/><path d="M 82 318.88 L 78.5 311.88 L 82 313.63 L 85.5 311.88 Z" fill="rgb(0, 0, 0)" stroke="rgb(0, 0, 0)" stroke-miterlimit="10" pointer-events="all"/><rect x="37" y="240" width="90" height="40" rx="6" ry="6" fill="#000000" stroke="#000000" pointer-events="all" transform="translate(2,3)" opacity="0.25"/><rect x="37" y="240" width="90" height="40" rx="6" ry="6" fill="rgb(255, 255, 255)" stroke="rgb(0, 0, 0)" pointer-events="all"/><g fill="rgb(0, 0, 0)" font-family="Helvetica" text-anchor="middle" font-size="12px"><text x="81.5" y="264.5">初始化设备</text></g><path d="M 82 205 L 82 215 Q 82 225 82 222.52 L 82 221.28 Q 82 220.03 82 226.83 L 82 233.63" fill="none" stroke="#000000" stroke-miterlimit="10" pointer-events="stroke" transform="translate(2,3)" opacity="0.25"/><path d="M 82 205 L 82 215 Q 82 225 82 222.52 L 82 221.28 Q 82 220.03 82 226.83 L 82 233.63" fill="none" stroke="rgb(0, 0, 0)" stroke-miterlimit="10" pointer-events="stroke"/><path d="M 82 238.88 L 78.5 231.88 L 82 233.63 L 85.5 231.88 Z" fill="rgb(0, 0, 0)" stroke="rgb(0, 0, 0)" stroke-miterlimit="10" pointer-events="all"/><rect x="37" y="165" width="90" height="40" rx="6" ry="6" fill="#000000" stroke="#000000" pointer-events="all" transform="translate(2,3)" opacity="0.25"/><rect x="37" y="165" width="90" height="40" rx="6" ry="6" fill="rgb(255, 255, 255)" stroke="rgb(0, 0, 0)" pointer-events="all"/><g fill="rgb(0, 0, 0)" font-family="Helvetica" text-anchor="middle" font-size="12px"><text x="81.5" y="189.5">关闭摄像头</text></g><path d="M 68.43 320 L 95.57 320 C 107.41 320 117 328.95 117 340 C 117 351.05 107.41 360 95.57 360 L 68.43 360 C 56.59 360 47 351.05 47 340 C 47 328.95 56.59 320 68.43 320 Z" fill="#000000" stroke="#000000" stroke-width="2" stroke-miterlimit="10" pointer-events="all" transform="translate(2,3)" opacity="0.25"/><path d="M 68.43 320 L 95.57 320 C 107.41 320 117 328.95 117 340 C 117 351.05 107.41 360 95.57 360 L 68.43 360 C 56.59 360 47 351.05 47 340 C 47 328.95 56.59 320 68.43 320 Z" fill="rgb(255, 255, 255)" stroke="rgb(0, 0, 0)" stroke-width="2" stroke-miterlimit="10" pointer-events="all"/><g fill="rgb(0, 0, 0)" font-family="Helvetica" text-anchor="middle" font-size="12px"><text x="81.5" y="344.5">结束</text></g><path d="M 467.03 430 L 467.03 435.02 Q 467.03 440.03 457.03 440.03 L 377.03 440.03 Q 367.03 440.03 367.03 430.03 L 367.03 240.03 Q 367.03 230.03 357.03 230.03 L 263.37 230" fill="none" stroke="#000000" stroke-miterlimit="10" pointer-events="stroke" transform="translate(2,3)" opacity="0.25"/><path d="M 467.03 430 L 467.03 435.02 Q 467.03 440.03 457.03 440.03 L 377.03 440.03 Q 367.03 440.03 367.03 430.03 L 367.03 240.03 Q 367.03 230.03 357.03 230.03 L 263.37 230" fill="none" stroke="rgb(0, 0, 0)" stroke-miterlimit="10" pointer-events="stroke"/><path d="M 258.12 230 L 265.12 226.5 L 263.37 230 L 265.12 233.5 Z" fill="rgb(0, 0, 0)" stroke="rgb(0, 0, 0)" stroke-miterlimit="10" pointer-events="all"/><rect x="422" y="390" width="90" height="40" rx="6" ry="6" fill="#000000" stroke="#000000" pointer-events="all" transform="translate(2,3)" opacity="0.25"/><rect x="422" y="390" width="90" height="40" rx="6" ry="6" fill="rgb(255, 255, 255)" stroke="rgb(0, 0, 0)" pointer-events="all"/><g fill="rgb(0, 0, 0)" font-family="Helvetica" text-anchor="middle" font-size="12px"><text x="466.5" y="414.5">初始化设备</text></g><rect x="527" y="310" width="25" height="20" fill="none" stroke="none" pointer-events="all" transform="translate(2,3)" opacity="0.25"/><rect x="527" y="310" width="25" height="20" fill="none" stroke="none" pointer-events="all"/><g fill="rgb(0, 0, 0)" font-family="Helvetica" font-weight="bold" text-anchor="middle" font-size="11px"><text x="539" y="324">No</text></g><rect x="437" y="360" width="25" height="20" fill="none" stroke="none" pointer-events="all" transform="translate(2,3)" opacity="0.25"/><rect x="437" y="360" width="25" height="20" fill="none" stroke="none" pointer-events="all"/><g fill="rgb(0, 0, 0)" font-family="Helvetica" font-weight="bold" text-anchor="middle" font-size="11px"><text x="449" y="374">Yes</text></g><rect x="222" y="320" width="25" height="20" fill="none" stroke="none" pointer-events="all" transform="translate(2,3)" opacity="0.25"/><rect x="222" y="320" width="25" height="20" fill="none" stroke="none" pointer-events="all"/><g fill="rgb(0, 0, 0)" font-family="Helvetica" font-weight="bold" text-anchor="middle" font-size="11px"><text x="234" y="334">Yes</text></g><rect x="172" y="260" width="25" height="20" fill="none" stroke="none" pointer-events="all" transform="translate(2,3)" opacity="0.25"/><rect x="172" y="260" width="25" height="20" fill="none" stroke="none" pointer-events="all"/><g fill="rgb(0, 0, 0)" font-family="Helvetica" font-weight="bold" text-anchor="middle" font-size="11px"><text x="184" y="274">No</text></g><path d="M 177.04 462.52 L 17.03 462.52 Q 7.03 462.52 7.03 452.52 L 7.03 30.03 Q 7.03 20.03 17.03 20.03 L 400.63 20" fill="none" stroke="rgb(0, 0, 0)" stroke-miterlimit="10" pointer-events="stroke"/><path d="M 405.88 20 L 398.88 23.5 L 400.63 20 L 398.88 16.5 Z" fill="rgb(0, 0, 0)" stroke="rgb(0, 0, 0)" stroke-miterlimit="10" pointer-events="all"/><path d="M 336.96 462.52 L 397.03 462.52 Q 407.03 462.52 407.02 454.44 L 407.01 446.37" fill="none" stroke="rgb(0, 0, 0)" stroke-miterlimit="10" pointer-events="stroke"/><path d="M 407 441.12 L 410.51 448.11 L 407.01 446.37 L 403.51 448.12 Z" fill="rgb(0, 0, 0)" stroke="rgb(0, 0, 0)" stroke-miterlimit="10" pointer-events="all"/><path d="M 257 430 L 337 462.5 L 257 495 L 177 462.5 Z" fill="#000000" stroke="#000000" stroke-miterlimit="10" pointer-events="all" transform="translate(2,3)" opacity="0.25"/><path d="M 257 430 L 337 462.5 L 257 495 L 177 462.5 Z" fill="rgb(255, 255, 255)" stroke="rgb(0, 0, 0)" stroke-miterlimit="10" pointer-events="all"/><g fill="rgb(0, 0, 0)" font-family="Helvetica" text-anchor="middle" font-size="12px"><text x="256.5" y="465">蚊虫数量达到目标值？</text></g><path d="M 467 40 L 467 93.63" fill="none" stroke="rgb(0, 0, 0)" stroke-miterlimit="10" pointer-events="stroke"/><path d="M 467 98.88 L 463.5 91.88 L 467 93.63 L 470.5 91.88 Z" fill="rgb(0, 0, 0)" stroke="rgb(0, 0, 0)" stroke-miterlimit="10" pointer-events="all"/><rect x="407" y="0" width="120" height="40" rx="6" ry="6" fill="#000000" stroke="#000000" pointer-events="all" transform="translate(2,3)" opacity="0.25"/><rect x="407" y="0" width="120" height="40" rx="6" ry="6" fill="rgb(255, 255, 255)" stroke="rgb(0, 0, 0)" pointer-events="all"/><g fill="rgb(0, 0, 0)" font-family="Helvetica" text-anchor="middle" font-size="12px"><text x="466.5" y="24.5">三轴平台 Z 轴上升</text></g><rect x="147" y="440" width="25" height="20" fill="none" stroke="none" pointer-events="all" transform="translate(2,3)" opacity="0.25"/><rect x="147" y="440" width="25" height="20" fill="none" stroke="none" pointer-events="all"/><g fill="rgb(0, 0, 0)" font-family="Helvetica" font-weight="bold" text-anchor="middle" font-size="11px"><text x="159" y="454">Yes</text></g><rect x="337" y="440" width="25" height="20" fill="none" stroke="none" pointer-events="all" transform="translate(2,3)" opacity="0.25"/><rect x="337" y="440" width="25" height="20" fill="none" stroke="none" pointer-events="all"/><g fill="rgb(0, 0, 0)" font-family="Helvetica" font-weight="bold" text-anchor="middle" font-size="11px"><text x="349" y="454">No</text></g></g></svg>